<?xml version="1.0" encoding="utf-8"?>
<!-- Generator: Adobe Illustrator 15.0.0, SVG Export Plug-In . SVG Version: 6.00 Build 0)  -->
<!DOCTYPE svg PUBLIC "-//W3C//DTD SVG 1.1//EN" "http://www.w3.org/Graphics/SVG/1.1/DTD/svg11.dtd">
<svg version="1.1" id="Layer_1" xmlns="http://www.w3.org/2000/svg" xmlns:xlink="http://www.w3.org/1999/xlink" x="0px" y="0px"
	 width="293.333px" height="89.333px" viewBox="0 0 293.333 89.333" enable-background="new 0 0 293.333 89.333"
	 xml:space="preserve">
<path fill-rule="evenodd" clip-rule="evenodd" fill="#BBBBBB" d="M291.673,48.753c-0.495-7.207-3.471-14.239-10.111-17.453
	c-6.102-2.954-17.666-2.173-23.822,0.492c-22.204,10.428-20.907,29.346-21.735,33.77c-3.949,2.642-10.642,4.59-16.701,5.403
	c-5.328,0.714-11.106,0.44-14.368-2.087c11.063-4.397,38.426-18.004,29.473-33.893c-8.796-16.206-58.547-0.183-50.594,35.163
	c-4.561,2.848-6.377,2.025-7.491-2.375c-0.196-7.828,1.815-13.846,2.947-20.753c0.379-2.308,0.852-4.789,0.613-7.245
	c-0.408-4.229-3.439-8.431-8.104-8.842c-13.287,0-20.365,9.688-23.7,11.911c-1.325-3.196,3.311-11.789-10.191-11.789
	c-10.297-0.639-17.142,6.26-22.104,10.56c-0.684-2.514-0.917-5.411-1.965-7.735c-0.877-1.944-2.599-4.084-4.789-4.421
	c-2.213-0.34-4.675,1.179-6.263,2.334c-4.88,3.551-9.839,8.229-13.139,12.649c1.792,3.325,6.911,1.03,10.192,0.613
	c-0.141,3.264-0.399,6.677-0.859,9.947c-0.723,5.137-0.864,9.577-5.404,12.771c-2.729,1.921-6.556,3.571-7.981-0.615
	c-1.379-4.047-0.199-8.812,0.589-12.865c0.984-5.054,1.51-10.162,2.235-15.256c0.389-2.729,0.872-4.862-1.098-7.174
	c-1.521-1.785-3.911-2.875-6.27-2.65c-6.269,0.598-9.224,6.311-13.631,9.087c2.236-8.883-4.874-11.409-11.993-10.322
	c-2.827,0.431-12.384,4.65-15.637,14.742c5.763-0.441,8.781,0.414,8.228,6.754c-0.232,2.657-1.572,5.562-3.07,8.349
	c-1.728,3.216-4.972,9.522-9.221,4.979c-3.828-4.095-3.535-11.921-4.409-17.135c-0.492-2.927-1.006-6.569-1.965-9.578
	c-0.825-2.592-2.716-5.706-5.035-6.386c-2.49-0.73-5.562,0.412-7.368,1.474c-5.75,3.381-10.13,8.191-15.104,12.157v0.368
	c0.982,0.941,1.249,2.489,2.701,2.702c3.424,0.5,6.686-3.196,8.96,0.653c1.388,2.347,1.819,4.924,2.706,7.453
	c1.186,3.379,2.102,7.05,3.07,10.929c1.64,6.565,3.653,16.382,9.333,18.789c2.9,1.228,7.25-0.415,9.456-1.722
	c5.976-3.538,10.627-8.659,14.613-13.875c3.953-5.173,7.932-11.229,11.053-17.438c1.913-3.805,3.188-7.027,8.596-6.263
	c-0.356,7.92-2.828,14.642-4.298,21.49c-0.518,2.413-1.19,5.041-1.228,7.491c-0.067,4.379,1.763,8.671,5.035,9.577
	c2.421,0.672,5.792,0.416,8.105,0.247c7.833-0.569,14.706-5.742,18.962-9.997c2.354,2.845,5.331,10.123,16.441,10.123
	c-5.099-11.166-1.821-37.938,11.875-36.721c4.011,1.547,2.206,8.266,1.351,12.035c-0.591,2.607-5.94,26.633,14.858,24.805
	c0-4.56-1.809-29.854,11.823-36.566c1.226-0.632,5.502-0.663,5.737,1.446c1.064,9.544-3.34,18.095-3.192,27.753
	c0.112,15.229,23.675,2.438,28.858-0.491c2.974,2.188,11.76,10.84,31.929,6.262c3.789-0.954,7.129-1.96,10.192-3.438
	c3.213-1.552,6.192-3.256,9.455-4.298c-0.445,0.142,3.849,5.286,4.322,5.649c2.062,1.586,4.558,2.624,7.019,3.413
	c5.721,1.832,11.801,1.163,17.57-0.204c11.643-2.759,19.52-11.535,23.122-22.698C291.408,57.211,291.962,52.952,291.673,48.753z
	 M211.737,43.016c2.52-1.297,6.709-1.842,7.546,2.435c0.949,4.856-6.973,14.275-18.035,18.702
	C197.028,56.441,204.905,46.658,211.737,43.016z M271.952,64.013c-2.194,3.941-5.999,7.854-10.549,8.85
	c-8.896,1.947-8.223-10.998-6.732-16.389c0.643-2.324,1.587-4.256,2.578-6.018c1.978-3.516,4.751-7.378,8.728-8.747
	c0.271-0.093,0.546-0.175,0.828-0.244c4.053-0.996,6.943,1.868,8.229,5.504C277.095,52.803,274.809,58.881,271.952,64.013z
	 M88.707,16.979c4.134-3.291,5.407-8.57,2.842-11.792S83.554,2.021,79.42,5.312c-4.135,3.291-5.407,8.571-2.843,11.792
	C79.141,20.327,84.572,20.27,88.707,16.979z"/>
</svg>
