<?xml version="1.0" encoding="utf-8"?>
<!-- Generator: Adobe Illustrator 15.0.0, SVG Export Plug-In . SVG Version: 6.00 Build 0)  -->
<!DOCTYPE svg PUBLIC "-//W3C//DTD SVG 1.1//EN" "http://www.w3.org/Graphics/SVG/1.1/DTD/svg11.dtd">
<svg version="1.1" id="Layer_1" xmlns="http://www.w3.org/2000/svg" xmlns:xlink="http://www.w3.org/1999/xlink" x="0px" y="0px"
	 width="208.081px" height="90.404px" viewBox="0 0 208.081 90.404" enable-background="new 0 0 208.081 90.404"
	 xml:space="preserve">
<g>
	<g>
		<path opacity="0.3" fill-rule="evenodd" clip-rule="evenodd" fill="#BBBBBB" d="M30.689,18.19h-8.107L17.11,39.222L11.418,18.19
			H2.983c1.688,4.966,3.446,9.953,5.139,14.919c2.573,7.472,4.173,13.102,4.9,16.942v21.688h8.021V50.052L30.689,18.19z
			 M52.113,58.818V44.846c0-4.264-0.727-7.382-2.243-9.4c-1.999-2.729-4.815-4.09-8.438-4.09c-3.602,0-6.414,1.36-8.414,4.09
			c-1.537,2.018-2.264,5.136-2.264,9.4v13.972c0,4.244,0.727,7.389,2.264,9.386c2,2.72,4.812,4.085,8.414,4.085
			c3.623,0,6.439-1.365,8.438-4.085C51.386,66.207,52.113,63.062,52.113,58.818z M44.883,60.184c0,3.69-1.121,5.538-3.451,5.538
			c-2.329,0-3.448-1.848-3.448-5.538V43.396c0-3.691,1.119-5.534,3.448-5.534c2.33,0,3.451,1.843,3.451,5.534V60.184z
			 M78.851,71.741V31.834h-7.23v30.501c-1.602,2.267-3.119,3.387-4.562,3.387c-0.972,0-1.538-0.577-1.698-1.693
			c-0.087-0.238-0.087-1.121-0.087-2.814v-29.38h-7.208v31.558c0,2.814,0.243,4.721,0.643,5.933c0.72,2.017,2.327,2.964,4.653,2.964
			c2.64,0,5.382-1.6,8.26-4.901v4.354H78.851z"/>
		<path fill-rule="evenodd" clip-rule="evenodd" fill="#BBBBBB" d="M30.706,17.324h-8.107L17.132,38.35l-5.694-21.026H3.002
			c1.688,4.961,3.449,9.953,5.141,14.919c2.57,7.467,4.174,13.096,4.898,16.942v21.684h8.02V49.185L30.706,17.324z M52.137,57.952
			V43.975c0-4.264-0.73-7.382-2.246-9.4c-2.002-2.725-4.812-4.089-8.435-4.089c-3.602,0-6.418,1.365-8.418,4.089
			c-1.537,2.018-2.264,5.136-2.264,9.4v13.977c0,4.239,0.727,7.383,2.264,9.386c2,2.719,4.817,4.084,8.418,4.084
			c3.624,0,6.433-1.365,8.435-4.084C51.407,65.334,52.137,62.191,52.137,57.952z M44.902,59.312c0,3.691-1.115,5.539-3.446,5.539
			c-2.334,0-3.453-1.848-3.453-5.539V42.524c0-3.691,1.119-5.529,3.453-5.529c2.331,0,3.446,1.838,3.446,5.529V59.312z
			 M78.876,70.869V30.968h-7.233v30.497c-1.601,2.266-3.12,3.387-4.564,3.387c-0.972,0-1.537-0.572-1.697-1.693
			c-0.087-0.234-0.087-1.115-0.087-2.814V30.968h-7.208V62.52c0,2.814,0.241,4.728,0.642,5.933c0.721,2.022,2.327,2.969,4.656,2.969
			c2.635,0,5.383-1.604,8.259-4.906v4.354H78.876z"/>
	</g>
	<g>
		<path fill="#BBBBBB" d="M185.485,36.46c-2.392,0-3.588,1.827-3.588,5.479v3.651h7.153v-3.651
			C189.05,38.287,187.853,36.46,185.485,36.46z"/>
		<path fill="#BBBBBB" d="M158.934,36.46c-1.176,0-2.369,0.562-3.564,1.738v24.069c1.195,1.197,2.389,1.76,3.564,1.76
			c2.064,0,3.111-1.76,3.111-5.326V41.849C162.045,38.287,160.999,36.46,158.934,36.46z"/>
		<path fill="#BBBBBB" d="M202.977,16.385c-1.449-6.292-6.599-10.934-12.797-11.627c-14.682-1.644-29.541-1.649-44.333-1.644
			c-14.794-0.005-29.654,0-44.334,1.644c-6.199,0.693-11.348,5.334-12.793,11.627c-2.064,8.972-2.087,18.754-2.087,27.99
			c0,9.231,0,19.019,2.062,27.986c1.448,6.295,6.594,10.938,12.793,11.632c14.68,1.638,29.54,1.647,44.335,1.638
			c14.793,0.01,29.651,0,44.335-1.638c6.197-0.693,11.349-5.337,12.794-11.632c2.064-8.967,2.076-18.755,2.076-27.986
			C205.028,35.139,205.038,25.356,202.977,16.385z M120.403,24.455h-8.57V69.99h-7.959V24.455h-8.415v-7.462h24.944V24.455z
			 M142.022,69.99h-7.161v-4.309c-2.843,3.262-5.545,4.851-8.174,4.851c-2.308,0-3.896-0.937-4.61-2.938
			c-0.393-1.196-0.632-3.078-0.632-5.869V30.502h7.152v29.071c0,1.674,0,2.55,0.067,2.78c0.171,1.111,0.717,1.674,1.672,1.674
			c1.437,0,2.938-1.106,4.524-3.348V30.502h7.161V69.99z M169.2,58.138c0,3.652-0.244,6.281-0.719,7.955
			c-0.957,2.939-2.87,4.438-5.722,4.438c-2.543,0-5.001-1.415-7.39-4.374v3.832h-7.155V16.992h7.155v17.311
			c2.309-2.845,4.761-4.284,7.39-4.284c2.852,0,4.765,1.499,5.722,4.458c0.475,1.59,0.719,4.2,0.719,7.936V58.138z M196.205,51.548
			h-14.308v6.999c0,3.657,1.196,5.479,3.651,5.479c1.763,0,2.791-0.957,3.2-2.869c0.063-0.389,0.152-1.979,0.152-4.848h7.304v1.047
			c0,2.301-0.089,3.89-0.152,4.607c-0.241,1.583-0.805,3.018-1.671,4.288c-1.983,2.864-4.917,4.279-8.653,4.279
			c-3.746,0-6.593-1.349-8.66-4.044c-1.519-1.973-2.299-5.092-2.299-9.285V43.369c0-4.219,0.689-7.302,2.213-9.3
			c2.063-2.706,4.915-4.05,8.566-4.05c3.59,0,6.439,1.345,8.441,4.05c1.498,1.998,2.215,5.081,2.215,9.3V51.548z"/>
	</g>
</g>
</svg>
